<?xml version="1.0" standalone="no"?><!DOCTYPE svg PUBLIC "-//W3C//DTD SVG 1.1//EN" "http://www.w3.org/Graphics/SVG/1.1/DTD/svg11.dtd"><svg t="1554040854293" class="icon" style="" viewBox="0 0 1024 1024" version="1.1" xmlns="http://www.w3.org/2000/svg" p-id="3157" xmlns:xlink="http://www.w3.org/1999/xlink" width="200" height="200"><defs><style type="text/css"></style></defs><path d="M810.688 64H213.312A149.376 149.376 0 0 0 64 213.312v597.376A149.376 149.376 0 0 0 213.312 960h597.376A149.376 149.376 0 0 0 960 810.688V213.312A149.376 149.376 0 0 0 810.688 64z m-32.256 505.088H565.248v194.048a54.528 54.528 0 1 1-108.992 0V569.088H243.072a57.088 57.088 0 0 1 0-114.176h213.12v-196.48a54.528 54.528 0 0 1 109.056 0v196.48h213.184a57.088 57.088 0 0 1 0 114.176z" fill="#B88F64" p-id="3158"></path></svg>