<?xml version="1.0" standalone="no"?><!DOCTYPE svg PUBLIC "-//W3C//DTD SVG 1.1//EN" "http://www.w3.org/Graphics/SVG/1.1/DTD/svg11.dtd"><svg t="1554041384896" class="icon" style="" viewBox="0 0 1024 1024" version="1.1" xmlns="http://www.w3.org/2000/svg" p-id="5109" xmlns:xlink="http://www.w3.org/1999/xlink" width="200" height="200"><defs><style type="text/css"></style></defs><path d="M912 262v500c0 41.3-14.7 76.7-44 106s-64.6 44-106 44H262.1c-41.3 0-76.7-14.7-106-44s-44-64.6-44-106V262c0-41.3 14.7-76.7 44-106s64.6-44 106-44h500c41.3 0 76.7 14.7 106 44 29.2 29.3 43.9 64.7 43.9 106zM778.6 545.4v-66.7c0-9-3.3-16.9-9.9-23.4-6.6-6.6-14.5-9.9-23.4-9.9H278.7c-9 0-16.9 3.3-23.4 9.9-6.6 6.6-9.9 14.5-9.9 23.4v66.7c0 9 3.3 16.9 9.9 23.4 6.6 6.6 14.3 9.9 23.4 9.9h466.6c9 0 16.9-3.3 23.4-9.9 6.6-6.7 9.9-14.5 9.9-23.4z" fill="#B88F64" p-id="5110"></path></svg>